<?xml version="1.0" encoding="utf-8"?>
<!-- Generator: Adobe Illustrator 16.0.0, SVG Export Plug-In . SVG Version: 6.00 Build 0)  -->
<!DOCTYPE svg PUBLIC "-//W3C//DTD SVG 1.1//EN" "http://www.w3.org/Graphics/SVG/1.1/DTD/svg11.dtd">
<svg version="1.1" id="Layer_1" xmlns="http://www.w3.org/2000/svg" xmlns:xlink="http://www.w3.org/1999/xlink" x="0px" y="0px"
	 width="600px" height="600px" viewBox="0 0 600 600" enable-background="new 0 0 600 600" xml:space="preserve">
<path d="M17.717,590.939h565.021c5.468,0,9.114-3.645,9.114-9.113V462.443c0-5.467-3.646-9.113-9.114-9.113h-17.314v25.517h-18.227
	V453.33h-17.315v43.744h-18.226V453.33h-17.314v25.517h-18.228V453.33h-17.315v43.744H440.57V453.33h-17.314v25.517h-18.227V453.33
	h-17.314v43.744h-18.227V453.33h-17.316v25.517h-18.226V453.33h-17.314v43.744h-18.227V453.33h-17.316v25.517h-18.227V453.33
	h-17.314v43.744h-18.227V453.33h-17.314v25.517H191.78V453.33h-17.316v43.744h-18.226V453.33h-10.936v-7.29h-43.743v-18.228h43.743
	v-17.315h-25.518v-18.226h25.518v-17.314h-43.743v-18.228h43.743v-17.315h-25.518v-18.227h25.518v-17.314h-43.743v-18.227h43.743
	v-17.315h-25.518v-18.227h25.518V232.79h-43.743v-18.226h43.743v-17.314h-25.518v-18.227h25.518v-17.316h-43.743v-18.227h43.743
	v-17.314h-25.518v-18.228h25.518V90.624h-43.743V72.396h43.743V55.081h-25.518V36.855h25.518V16.806
	c0-5.468-3.645-9.114-9.113-9.114H16.805c-5.468,0-9.112,3.646-9.112,9.114v565.02C8.604,587.295,12.249,590.939,17.717,590.939z"/>
</svg>
